<?xml version="1.0" standalone="no"?>
<!DOCTYPE svg PUBLIC "-//W3C//DTD SVG 20010904//EN"
 "http://www.w3.org/TR/2001/REC-SVG-20010904/DTD/svg10.dtd">
<svg version="1.0" xmlns="http://www.w3.org/2000/svg"
 width="2199.000000pt" height="1237.000000pt" viewBox="0 0 2199.000000 1237.000000"
 preserveAspectRatio="xMidYMid meet">

<g transform="translate(0.000000,1237.000000) scale(0.100000,-0.100000)"
fill="#000000" stroke="none">
<path d="M7293 12329 c-197 -24 -388 -61 -432 -84 -25 -13 -85 -42 -132 -65
-118 -56 -151 -78 -327 -219 -157 -125 -287 -243 -377 -340 -27 -30 -71 -75
-96 -100 -171 -171 -474 -650 -714 -1131 -285 -571 -386 -706 -860 -1150 -531
-498 -850 -910 -909 -1173 -23 -100 -36 -330 -36 -635 0 -366 15 -572 51 -689
48 -154 195 -397 308 -508 17 -17 31 -33 31 -37 0 -4 26 -46 58 -93 79 -116
227 -288 408 -474 334 -344 460 -522 689 -976 218 -431 344 -618 614 -910 142
-153 589 -570 766 -715 188 -153 595 -405 1165 -720 186 -103 585 -304 715
-360 66 -28 129 -56 140 -61 11 -4 58 -24 105 -43 86 -34 289 -123 435 -191
270 -126 570 -268 770 -365 717 -350 1009 -484 1340 -615 197 -78 272 -101
355 -110 76 -8 267 -40 360 -60 36 -8 110 -24 165 -36 92 -19 141 -30 340 -75
86 -19 324 -76 640 -154 844 -207 1099 -235 2140 -235 435 0 573 3 620 14 37
8 135 14 255 15 107 1 224 8 260 15 36 6 99 18 140 26 41 8 109 19 150 25 242
33 371 81 641 235 283 162 407 263 570 466 136 167 267 377 323 515 52 128 68
338 46 588 -21 235 -51 747 -66 1116 -24 617 -38 1877 -25 2260 18 536 52 676
252 1065 99 193 257 510 276 555 45 104 54 128 72 190 53 177 56 212 56 730 0
520 -6 605 -57 774 -26 90 -105 249 -171 346 -70 101 -273 303 -377 375 -104
71 -259 225 -321 320 -25 39 -58 101 -73 139 -58 145 -105 388 -106 542 0 146
-55 290 -166 438 -87 115 -179 206 -323 320 -366 290 -758 520 -1146 673 -424
167 -962 285 -1890 414 -571 79 -966 118 -1205 119 -80 0 -201 5 -270 10 -415
33 -1044 42 -2545 39 -1388 -4 -1828 -3 -2280 5 -154 2 -313 0 -352 -5z m3942
-298 c1742 -56 2777 -143 2998 -253 20 -10 37 -23 37 -28 0 -26 -63 -34 -310
-38 -601 -9 -1809 66 -2371 147 -398 58 -1018 84 -1441 61 -450 -25 -811 -101
-1282 -269 -394 -141 -593 -231 -901 -409 -588 -339 -1305 -834 -1305 -901 0
-39 123 30 395 224 367 262 653 431 1110 657 627 310 1044 465 1479 548 459
88 853 102 1446 50 392 -34 618 -57 940 -94 69 -8 166 -19 215 -25 419 -48
998 -76 1395 -67 785 17 1020 18 1190 7 312 -21 455 -48 670 -124 504 -179
1190 -583 1448 -851 138 -144 203 -310 222 -566 15 -219 60 -404 132 -543 74
-143 211 -306 367 -440 182 -155 239 -209 327 -308 164 -185 202 -261 243
-484 57 -308 55 -768 -4 -1000 -37 -149 -95 -281 -293 -675 -240 -478 -278
-590 -312 -905 -17 -158 -24 -1561 -11 -2090 21 -826 39 -1208 76 -1562 20
-191 20 -440 0 -518 -31 -120 -145 -331 -257 -477 -85 -110 -235 -267 -327
-343 -166 -135 -567 -332 -836 -410 -253 -73 -462 -89 -1070 -82 -944 12
-1325 59 -2135 267 -917 235 -1310 328 -1560 370 -69 11 -152 27 -185 36 -130
35 -484 176 -800 319 -152 69 -299 139 -730 350 -584 285 -1036 493 -1320 605
-204 81 -809 392 -1180 607 -445 258 -664 406 -870 587 -315 278 -576 530
-701 678 -178 209 -291 389 -449 711 -177 363 -328 598 -525 817 -112 125
-140 164 -126 177 4 4 55 -5 114 -20 108 -28 172 -34 172 -18 0 29 -73 70
-390 218 -245 115 -480 381 -666 757 -235 475 -266 911 -90 1271 170 350 635
898 856 1010 127 64 433 121 898 165 117 11 215 20 218 20 3 0 2 5 -1 10 -4 6
-58 10 -128 10 -214 0 -574 19 -613 32 -64 21 -60 33 71 188 87 104 205 310
391 685 344 695 547 1009 844 1306 275 275 517 448 741 530 148 54 446 83 944
93 373 7 2948 -4 3250 -13z"/>
<path d="M10375 11434 c-476 -36 -1009 -109 -1235 -170 -217 -59 -617 -218
-885 -351 -331 -165 -662 -400 -900 -638 -128 -128 -255 -282 -255 -311 0 -53
132 46 386 288 83 80 189 174 235 210 313 244 788 490 1244 645 248 84 519
142 900 193 338 44 490 54 835 55 376 0 515 -11 863 -71 614 -105 992 -136
1647 -136 491 0 916 22 1391 73 107 11 293 23 414 26 279 7 308 1 490 -102
131 -74 189 -54 108 37 -52 57 -138 111 -215 134 -55 17 -94 19 -303 18 -150
0 -302 -7 -405 -18 -1311 -135 -2125 -125 -3024 39 -405 74 -446 77 -866 80
-206 1 -397 1 -425 -1z"/>
<path d="M9860 10960 c-248 -19 -469 -42 -574 -61 -317 -56 -701 -188 -933
-321 -191 -109 -428 -293 -620 -483 -164 -162 -232 -265 -175 -265 34 0 107
56 258 198 317 298 581 479 864 590 254 101 535 179 775 216 271 42 449 50
1087 51 453 0 620 3 629 12 16 16 -13 30 -112 49 -69 13 -172 17 -584 19 -275
2 -552 -1 -615 -5z"/>
<path d="M10844 10806 c-8 -21 28 -83 86 -151 149 -173 236 -357 285 -602 14
-70 30 -132 35 -137 14 -14 13 299 -1 383 -12 79 -57 190 -108 268 -49 75
-153 182 -215 222 -55 34 -74 38 -82 17z"/>
<path d="M14425 10803 c-596 -49 -956 -92 -1134 -134 -148 -35 -209 -73 -166
-105 28 -21 73 -17 213 15 227 52 606 99 1026 126 426 28 521 7 876 -199 276
-161 387 -281 479 -523 55 -142 91 -165 91 -58 0 82 -27 185 -71 275 -82 166
-253 306 -554 455 -250 124 -374 156 -594 153 -69 -1 -144 -3 -166 -5z"/>
<path d="M13437 10309 c-107 -88 -168 -350 -147 -626 5 -71 13 -153 16 -183
l7 -55 8 40 c4 22 8 72 8 110 2 203 56 427 136 559 90 150 74 239 -28 155z"/>
<path d="M9180 9909 c-343 -39 -600 -93 -806 -171 -370 -139 -754 -502 -754
-712 0 -35 7 -54 33 -88 49 -64 123 -116 200 -139 99 -31 284 -23 501 21 280
56 406 71 646 77 391 10 684 -32 1030 -148 154 -51 293 -112 616 -268 138 -66
257 -121 265 -121 20 0 270 165 361 239 171 138 210 203 212 356 1 93 -1 103
-28 150 -86 149 -431 403 -791 585 -397 201 -544 232 -1085 229 -179 -1 -359
-6 -400 -10z m840 -348 c339 -76 757 -288 956 -486 87 -86 102 -117 80 -170
-16 -37 -77 -92 -112 -101 -75 -19 -211 27 -542 184 -235 112 -384 161 -488
162 -68 0 -104 11 -121 37 -15 23 -15 31 11 118 15 52 31 129 36 171 12 113
26 119 180 85z m-1563 -274 c45 -45 -91 -122 -325 -182 -57 -15 -106 -25 -109
-21 -7 6 34 64 81 114 32 35 103 76 171 99 50 16 162 11 182 -10z"/>
<path d="M14365 9525 c-320 -31 -435 -60 -635 -160 -110 -55 -217 -123 -349
-223 -177 -134 -287 -176 -493 -192 -195 -15 -286 -42 -310 -95 -26 -57 75
-148 276 -252 157 -81 208 -126 231 -207 11 -38 19 -126 25 -283 12 -309 34
-384 154 -512 97 -104 217 -182 323 -210 51 -14 129 -95 169 -178 63 -128 21
-237 -185 -484 -139 -167 -298 -292 -417 -329 -112 -34 -158 -25 -258 50 -93
70 -164 64 -226 -22 -40 -55 -46 -96 -22 -149 59 -134 261 -223 507 -222 196
0 236 24 560 343 256 251 317 305 390 340 54 26 82 22 134 -21 58 -48 96 -35
170 58 22 29 50 57 60 63 76 40 304 -34 691 -224 160 -79 230 -102 230 -76 0
18 -92 111 -155 155 -110 79 -266 145 -340 145 -28 0 -139 54 -199 97 -28 21
-105 89 -171 152 -225 214 -402 349 -729 555 -101 64 -202 135 -225 158 -82
83 -112 173 -130 392 -22 259 4 303 238 401 219 92 628 165 1211 215 250 22
530 63 653 97 63 17 145 81 172 134 41 79 -12 178 -159 297 -135 110 -250 160
-431 187 -124 18 -567 19 -760 0z m655 -323 c71 -18 -3 -27 -222 -27 -152 0
-220 3 -229 12 -9 9 0 13 37 18 27 3 56 8 64 10 26 7 313 -4 350 -13z"/>
<path d="M7220 9189 c-180 -24 -358 -55 -427 -75 -49 -13 -53 -17 -53 -44 0
-84 278 -168 470 -142 76 10 70 13 -72 43 -59 12 -115 27 -125 34 -16 12 -14
14 15 32 18 11 108 50 202 87 93 38 167 72 164 77 -6 11 5 12 -174 -12z"/>
<path d="M15985 9111 c-36 -15 -60 -50 -49 -69 35 -56 147 -66 664 -59 587 8
600 6 774 -162 114 -109 230 -199 338 -262 88 -51 129 -88 188 -166 97 -128
168 -312 190 -491 16 -127 -3 -274 -70 -542 -46 -184 -72 -258 -115 -325 -71
-109 -137 -154 -463 -310 -131 -63 -261 -127 -291 -142 -63 -33 -82 -56 -63
-75 38 -38 514 150 717 283 115 76 207 172 235 245 27 75 72 259 106 439 35
190 44 426 20 545 -21 104 -70 232 -137 360 -73 140 -113 188 -186 225 -72 37
-166 106 -318 235 -139 118 -212 165 -294 191 -83 25 -256 38 -522 39 -232 0
-433 14 -527 35 -68 16 -165 19 -197 6z"/>
<path d="M5280 9050 c-282 -13 -457 -41 -550 -91 -233 -124 -513 -475 -575
-719 -27 -111 -37 -316 -32 -665 5 -346 25 -577 68 -783 36 -176 137 -344 276
-457 77 -64 322 -182 496 -240 132 -44 176 -52 179 -30 2 15 -155 111 -352
215 -205 108 -275 156 -353 240 -91 97 -135 193 -172 370 -49 235 -60 375 -60
780 0 356 1 379 22 463 29 113 74 210 153 328 128 191 311 395 376 419 101 39
446 83 1024 130 140 12 256 23 258 25 16 16 -503 26 -758 15z"/>
<path d="M7274 8811 c-44 -20 -54 -36 -54 -81 0 -57 7 -62 53 -38 78 39 167
100 167 113 0 30 -104 34 -166 6z"/>
<path d="M5714 8740 c-179 -15 -334 -68 -484 -165 -104 -67 -300 -266 -379
-384 -265 -399 -322 -817 -175 -1271 66 -201 177 -392 257 -440 45 -28 99 -26
136 5 76 65 62 183 -59 510 -75 202 -104 331 -97 435 19 302 333 785 582 896
228 100 692 136 892 68 25 -9 71 -33 102 -54 129 -88 548 -257 854 -345 288
-83 442 -105 748 -105 254 0 334 9 494 55 297 86 698 385 805 599 35 70 37 88
11 130 -28 45 -75 69 -135 70 -76 1 -145 -37 -236 -130 -122 -124 -306 -236
-520 -317 -240 -91 -399 -116 -575 -93 -289 38 -698 180 -1164 403 -122 58
-197 81 -351 107 -210 34 -480 44 -706 26z"/>
<path d="M17028 8623 c-25 -6 -22 -16 14 -52 35 -35 134 -94 266 -160 133 -67
192 -133 226 -251 40 -141 91 -510 84 -615 -8 -113 -29 -148 -191 -311 -148
-148 -191 -204 -170 -225 50 -50 333 177 408 327 27 54 30 69 33 187 8 265
-64 712 -138 858 -11 22 -38 52 -60 68 -117 85 -403 190 -472 174z"/>
<path d="M16280 8344 c-222 -34 -299 -68 -565 -254 -270 -188 -321 -204 -460
-143 -38 17 -108 48 -155 69 -68 30 -101 38 -163 42 -66 4 -81 2 -98 -14 -107
-97 -32 -277 157 -376 127 -67 355 -108 599 -108 156 0 216 11 278 49 38 25
51 43 96 136 40 82 67 121 114 169 56 56 70 65 142 87 72 22 98 24 255 24 220
0 286 -16 485 -115 201 -100 254 -109 307 -52 54 57 62 115 28 191 -26 57
-121 148 -196 188 -140 75 -362 114 -632 112 -92 -1 -178 -3 -192 -5z"/>
<path d="M6117 8111 c-56 -62 -77 -109 -128 -288 -39 -138 -74 -209 -134 -268
-74 -74 -166 -118 -562 -269 -46 -17 -82 -39 -98 -58 -33 -39 -33 -87 -1 -117
41 -39 109 -52 321 -62 110 -5 214 -12 230 -15 119 -25 207 -145 235 -320 9
-54 8 -76 -5 -121 -9 -32 -13 -67 -10 -85 4 -16 36 -62 72 -101 116 -129 273
-345 547 -752 264 -392 611 -823 842 -1045 368 -354 1066 -876 1511 -1129 560
-318 1466 -577 2378 -680 515 -59 909 -76 1730 -76 959 0 1374 25 1990 121
676 104 1043 236 1297 464 232 207 456 656 523 1045 59 345 83 1239 45 1695
-51 616 -140 1008 -249 1088 -62 46 -108 149 -136 307 -28 156 -75 229 -147
227 -80 -2 -123 -108 -168 -419 -36 -251 -88 -412 -174 -541 -223 -335 -1016
-713 -1746 -831 -489 -79 -1064 -79 -1860 -1 -706 70 -1274 188 -2200 457
-383 111 -391 114 -550 163 -74 23 -162 50 -195 60 -87 26 -360 112 -580 182
-681 216 -1289 458 -1845 734 -489 242 -690 381 -721 498 -30 113 -81 176
-143 176 -26 0 -41 -8 -69 -39z m363 -758 c133 -53 727 -345 909 -448 158 -89
249 -172 280 -257 28 -77 44 -256 39 -432 -4 -170 -9 -182 -69 -161 -146 52
-778 358 -939 455 -124 74 -214 143 -271 208 -119 135 -220 392 -223 565 -1
75 0 80 28 104 26 22 35 24 80 19 28 -4 103 -28 166 -53z m1751 -787 c68 -19
205 -60 304 -91 199 -63 441 -138 495 -153 34 -10 285 -84 527 -156 342 -101
413 -143 413 -241 0 -75 -101 -489 -135 -555 -9 -17 -23 -34 -31 -37 -18 -7
-95 21 -434 154 -322 128 -551 205 -689 232 -57 12 -120 31 -140 43 -192 116
-448 420 -512 610 -23 70 -19 146 12 197 24 39 35 39 190 -3z m8217 -43 c83
-130 109 -270 37 -203 -29 28 -89 141 -104 196 -23 87 13 91 67 7z m-278 -438
c48 -98 137 -352 165 -470 19 -77 19 -139 1 -174 -26 -49 -151 -141 -193 -141
-40 0 -62 68 -88 275 -44 352 -45 601 -4 651 20 24 65 -29 119 -141z m-9292
-99 c212 -82 532 -234 648 -308 84 -53 157 -134 183 -204 54 -143 65 -362 23
-457 -22 -50 -69 -87 -112 -87 -32 0 -171 141 -302 305 -212 268 -548 745
-548 779 0 11 22 6 108 -28z m8764 -80 c43 -32 77 -170 78 -311 0 -231 -62
-431 -153 -493 -27 -18 -274 -82 -317 -82 -15 0 -38 97 -50 214 -6 59 -24 161
-41 225 -16 64 -29 132 -29 151 0 46 29 91 82 128 53 36 232 127 313 158 69
26 93 29 117 10z m-5032 -61 c336 -65 823 -165 945 -195 151 -37 257 -88 290
-138 30 -46 40 -95 55 -279 24 -279 3 -303 -263 -303 -266 0 -612 50 -982 141
-330 81 -465 143 -465 211 0 31 75 353 106 453 30 97 64 145 102 145 14 0 110
-16 212 -35z m4085 -289 c45 -19 77 -72 114 -186 70 -222 75 -269 32 -309 -62
-58 -411 -109 -806 -118 -272 -6 -304 -1 -341 55 -41 60 -65 328 -35 384 36
70 132 92 751 177 106 14 246 13 285 -3z m-1915 -42 c219 -24 417 -50 452 -60
20 -6 44 -81 78 -244 40 -190 31 -236 -49 -261 -52 -17 -705 -24 -829 -10
-174 21 -194 49 -200 276 -6 239 16 308 105 326 50 10 170 3 443 -27z m-4546
-195 c37 -11 194 -77 349 -146 396 -176 623 -264 822 -318 245 -66 304 -167
241 -415 -62 -244 -227 -612 -305 -683 -53 -48 -78 -47 -177 3 -122 61 -708
450 -984 652 -208 152 -271 222 -256 280 3 13 23 47 46 76 74 100 120 245 120
387 1 96 13 155 36 172 23 17 30 17 108 -8z m2087 -750 c414 -144 617 -207
892 -280 223 -59 277 -80 316 -124 52 -60 56 -87 55 -360 -2 -279 -17 -497
-39 -571 -8 -29 -28 -62 -45 -79 l-31 -30 -122 1 c-217 2 -654 88 -1117 219
-317 90 -455 145 -494 198 -43 59 -16 158 116 417 107 209 137 304 144 450 9
200 21 230 87 230 18 0 125 -32 238 -71z m6179 -213 c0 -45 -212 -585 -284
-724 -31 -60 -73 -24 -63 52 16 116 152 419 266 594 57 87 81 110 81 78z
m-4395 -276 c120 -33 373 -67 670 -90 285 -23 334 -36 368 -100 26 -49 17
-139 -44 -447 -55 -281 -68 -326 -105 -364 -47 -49 -88 -54 -464 -54 -336 1
-487 10 -552 36 -72 29 -97 198 -79 532 21 381 36 468 85 502 11 9 28 13 36 9
8 -3 47 -14 85 -24z m3763 -15 c1 -16 -14 -86 -34 -155 -21 -72 -38 -158 -41
-202 -9 -126 16 -158 122 -158 63 0 105 -14 105 -34 0 -35 -119 -106 -254
-153 -118 -40 -334 -93 -382 -93 -56 0 -57 11 -9 126 111 267 251 521 346 627
56 63 79 77 119 74 20 -2 26 -8 28 -32z m-645 -129 c-1 -17 -45 -118 -97 -225
-119 -247 -149 -334 -150 -425 -1 -66 -2 -70 -31 -88 -44 -27 -146 -55 -266
-72 -139 -21 -162 -20 -184 4 -23 25 -26 11 78 310 87 248 112 309 162 384 40
60 56 68 165 85 41 6 118 22 170 36 52 13 109 23 125 22 27 -2 30 -5 28 -31z
m-1085 -66 c165 -18 196 -45 167 -146 -45 -158 -225 -506 -310 -601 -47 -51
-55 -56 -130 -74 -113 -28 -365 -38 -417 -16 -26 11 -39 24 -44 43 -27 108
100 680 167 753 18 19 57 33 119 44 50 9 357 6 448 -3z"/>
<path d="M10144 7550 c-34 -13 -37 -28 -19 -76 31 -83 -2 -146 -95 -179 -74
-26 -279 -46 -575 -55 -303 -9 -428 -21 -508 -48 -45 -15 -52 -21 -55 -46 -2
-16 1 -33 6 -38 5 -5 57 -5 133 1 68 6 203 15 299 21 361 21 641 50 738 75 30
7 71 25 92 39 74 49 101 163 61 253 -22 47 -47 64 -77 53z"/>
<path d="M10737 7524 c-203 -45 -337 -141 -384 -277 -15 -45 -18 -86 -18 -292
0 -225 2 -244 23 -296 12 -30 39 -75 60 -99 44 -52 194 -152 271 -181 54 -20
55 -20 80 -1 85 63 116 183 68 264 -14 24 -49 66 -78 93 -64 61 -109 152 -116
234 -13 146 57 203 307 251 63 12 148 28 188 35 94 18 139 46 164 102 16 37
17 47 6 70 -16 34 -67 69 -132 90 -73 23 -346 28 -439 7z"/>
<path d="M11275 6969 c-92 -12 -155 -44 -177 -89 -39 -76 -13 -254 45 -308 54
-51 123 -45 161 12 40 62 140 78 501 81 290 2 329 7 379 46 32 25 35 75 6 112
-45 57 -221 122 -395 146 -90 13 -419 12 -520 0z"/>
<path d="M7530 3556 c59 -59 882 -487 1280 -666 991 -446 1868 -770 2351 -869
201 -41 524 -78 889 -100 91 -6 239 -15 330 -21 849 -53 1636 -77 2045 -61
622 23 877 74 1225 247 205 102 336 192 458 315 92 91 182 206 182 230 0 18
-37 8 -95 -26 -33 -20 -118 -85 -190 -146 -289 -246 -566 -388 -937 -479 -343
-84 -677 -86 -2248 -10 -605 29 -613 30 -915 51 -645 45 -839 87 -1500 326
-641 232 -1223 478 -1970 833 -517 246 -850 390 -903 390 -14 0 -14 -2 -2 -14z"/>
<path d="M6690 3541 c0 -66 873 -540 1675 -911 781 -361 1462 -599 2165 -755
1534 -341 2242 -439 3485 -485 989 -36 1617 -38 1805 -6 217 37 314 77 586
241 404 244 514 327 561 423 28 57 28 57 26 240 -2 101 -7 190 -11 199 -6 9
-13 -23 -21 -89 -7 -57 -17 -123 -23 -148 -38 -159 -143 -255 -539 -493 -496
-299 -599 -327 -1189 -327 -268 0 -928 19 -1360 39 -859 40 -1410 108 -2217
271 -720 145 -1300 271 -1588 345 -312 79 -794 258 -1297 480 -434 192 -853
397 -1358 664 -326 173 -643 321 -687 321 -7 0 -13 -4 -13 -9z"/>
<path d="M12495 2360 c-300 -12 -47 -20 643 -19 744 0 982 8 642 22 -194 8
-1082 6 -1285 -3z"/>
</g>
</svg>
